<mxfile host="app.diagrams.net" modified="2024-04-02T06:49:13.806Z" agent="Mozilla/5.0 (Windows NT 10.0; Win64; x64) AppleWebKit/537.36 (KHTML, like Gecko) Chrome/123.0.0.0 Safari/537.36" etag="ZWbwXqB81xNSpc84G-WQ" version="24.0.5" type="github">
  <diagram name="Page-1" id="_Q1w_2Fy0XKp29hKqnCK">
    <mxGraphModel dx="1434" dy="780" grid="1" gridSize="10" guides="1" tooltips="1" connect="1" arrows="1" fold="1" page="1" pageScale="1" pageWidth="827" pageHeight="1169" background="#ffffff" math="0" shadow="0">
      <root>
        <mxCell id="0" />
        <mxCell id="1" parent="0" />
        <mxCell id="-cZI7Y2OUvkLeqVM6osX-1" value="" style="edgeStyle=orthogonalEdgeStyle;rounded=0;orthogonalLoop=1;jettySize=auto;html=1;" edge="1" parent="1" source="-cZI7Y2OUvkLeqVM6osX-2" target="-cZI7Y2OUvkLeqVM6osX-5">
          <mxGeometry relative="1" as="geometry" />
        </mxCell>
        <mxCell id="-cZI7Y2OUvkLeqVM6osX-2" value="Start" style="ellipse;whiteSpace=wrap;html=1;" vertex="1" parent="1">
          <mxGeometry x="344" y="140" width="120" height="60" as="geometry" />
        </mxCell>
        <mxCell id="-cZI7Y2OUvkLeqVM6osX-3" value="End" style="ellipse;whiteSpace=wrap;html=1;" vertex="1" parent="1">
          <mxGeometry x="344" y="890" width="120" height="60" as="geometry" />
        </mxCell>
        <mxCell id="-cZI7Y2OUvkLeqVM6osX-4" value="" style="edgeStyle=orthogonalEdgeStyle;rounded=0;orthogonalLoop=1;jettySize=auto;html=1;" edge="1" parent="1" source="-cZI7Y2OUvkLeqVM6osX-5" target="-cZI7Y2OUvkLeqVM6osX-7">
          <mxGeometry relative="1" as="geometry" />
        </mxCell>
        <mxCell id="-cZI7Y2OUvkLeqVM6osX-5" value="&lt;font style=&quot;font-size: 11px;&quot;&gt;Computer Gesture&lt;/font&gt;" style="shape=parallelogram;perimeter=parallelogramPerimeter;whiteSpace=wrap;html=1;fixedSize=1;" vertex="1" parent="1">
          <mxGeometry x="344" y="230" width="120" height="60" as="geometry" />
        </mxCell>
        <mxCell id="-cZI7Y2OUvkLeqVM6osX-6" value="" style="edgeStyle=orthogonalEdgeStyle;rounded=0;orthogonalLoop=1;jettySize=auto;html=1;entryX=0.5;entryY=0;entryDx=0;entryDy=0;" edge="1" parent="1" source="-cZI7Y2OUvkLeqVM6osX-7" target="-cZI7Y2OUvkLeqVM6osX-23">
          <mxGeometry relative="1" as="geometry">
            <Array as="points">
              <mxPoint x="324" y="350" />
              <mxPoint x="324" y="270" />
              <mxPoint x="264" y="270" />
            </Array>
          </mxGeometry>
        </mxCell>
        <mxCell id="-cZI7Y2OUvkLeqVM6osX-7" value="&lt;font style=&quot;font-size: 11px;&quot;&gt;Human Gesture&lt;/font&gt;" style="shape=parallelogram;perimeter=parallelogramPerimeter;whiteSpace=wrap;html=1;fixedSize=1;" vertex="1" parent="1">
          <mxGeometry x="344" y="320" width="120" height="60" as="geometry" />
        </mxCell>
        <mxCell id="-cZI7Y2OUvkLeqVM6osX-8" value="" style="edgeStyle=orthogonalEdgeStyle;rounded=0;orthogonalLoop=1;jettySize=auto;html=1;" edge="1" parent="1" source="-cZI7Y2OUvkLeqVM6osX-9" target="-cZI7Y2OUvkLeqVM6osX-14">
          <mxGeometry relative="1" as="geometry" />
        </mxCell>
        <mxCell id="-cZI7Y2OUvkLeqVM6osX-9" value="Determine Winner&amp;nbsp;" style="rounded=0;whiteSpace=wrap;html=1;" vertex="1" parent="1">
          <mxGeometry x="344" y="410" width="120" height="60" as="geometry" />
        </mxCell>
        <mxCell id="-cZI7Y2OUvkLeqVM6osX-10" value="" style="edgeStyle=orthogonalEdgeStyle;rounded=0;orthogonalLoop=1;jettySize=auto;html=1;entryX=0.5;entryY=1;entryDx=0;entryDy=0;" edge="1" parent="1" source="-cZI7Y2OUvkLeqVM6osX-14" target="-cZI7Y2OUvkLeqVM6osX-18">
          <mxGeometry relative="1" as="geometry">
            <mxPoint x="524" y="540" as="targetPoint" />
          </mxGeometry>
        </mxCell>
        <mxCell id="-cZI7Y2OUvkLeqVM6osX-11" value="Yes" style="edgeLabel;html=1;align=center;verticalAlign=middle;resizable=0;points=[];" vertex="1" connectable="0" parent="-cZI7Y2OUvkLeqVM6osX-10">
          <mxGeometry x="0.1317" y="1" relative="1" as="geometry">
            <mxPoint as="offset" />
          </mxGeometry>
        </mxCell>
        <mxCell id="-cZI7Y2OUvkLeqVM6osX-12" value="" style="edgeStyle=orthogonalEdgeStyle;rounded=0;orthogonalLoop=1;jettySize=auto;html=1;entryX=1;entryY=0.5;entryDx=0;entryDy=0;" edge="1" parent="1" source="-cZI7Y2OUvkLeqVM6osX-14" target="-cZI7Y2OUvkLeqVM6osX-25">
          <mxGeometry relative="1" as="geometry">
            <Array as="points">
              <mxPoint x="544" y="530" />
            </Array>
          </mxGeometry>
        </mxCell>
        <mxCell id="-cZI7Y2OUvkLeqVM6osX-13" value="No" style="edgeLabel;html=1;align=center;verticalAlign=middle;resizable=0;points=[];" vertex="1" connectable="0" parent="-cZI7Y2OUvkLeqVM6osX-12">
          <mxGeometry x="-0.1802" y="3" relative="1" as="geometry">
            <mxPoint x="-27" y="-3" as="offset" />
          </mxGeometry>
        </mxCell>
        <mxCell id="-cZI7Y2OUvkLeqVM6osX-14" value="Tie?" style="rhombus;whiteSpace=wrap;html=1;" vertex="1" parent="1">
          <mxGeometry x="504" y="400" width="80" height="80" as="geometry" />
        </mxCell>
        <mxCell id="-cZI7Y2OUvkLeqVM6osX-15" value="" style="edgeStyle=orthogonalEdgeStyle;rounded=0;orthogonalLoop=1;jettySize=auto;html=1;" edge="1" parent="1" source="-cZI7Y2OUvkLeqVM6osX-16" target="-cZI7Y2OUvkLeqVM6osX-30">
          <mxGeometry relative="1" as="geometry" />
        </mxCell>
        <mxCell id="-cZI7Y2OUvkLeqVM6osX-16" value="&lt;font style=&quot;font-size: 11px;&quot;&gt;Show Winner&lt;/font&gt;" style="shape=parallelogram;perimeter=parallelogramPerimeter;whiteSpace=wrap;html=1;fixedSize=1;" vertex="1" parent="1">
          <mxGeometry x="336" y="590" width="136" height="60" as="geometry" />
        </mxCell>
        <mxCell id="-cZI7Y2OUvkLeqVM6osX-17" value="" style="edgeStyle=orthogonalEdgeStyle;rounded=0;orthogonalLoop=1;jettySize=auto;html=1;" edge="1" parent="1" source="-cZI7Y2OUvkLeqVM6osX-18" target="-cZI7Y2OUvkLeqVM6osX-5">
          <mxGeometry relative="1" as="geometry" />
        </mxCell>
        <mxCell id="-cZI7Y2OUvkLeqVM6osX-18" value="Play again" style="rhombus;whiteSpace=wrap;html=1;" vertex="1" parent="1">
          <mxGeometry x="504" y="220" width="80" height="80" as="geometry" />
        </mxCell>
        <mxCell id="-cZI7Y2OUvkLeqVM6osX-19" value="" style="edgeStyle=orthogonalEdgeStyle;rounded=0;orthogonalLoop=1;jettySize=auto;html=1;entryX=0;entryY=0.5;entryDx=0;entryDy=0;" edge="1" parent="1" source="-cZI7Y2OUvkLeqVM6osX-23" target="-cZI7Y2OUvkLeqVM6osX-9">
          <mxGeometry relative="1" as="geometry">
            <mxPoint x="274" y="440" as="targetPoint" />
            <Array as="points">
              <mxPoint x="264" y="440" />
            </Array>
          </mxGeometry>
        </mxCell>
        <mxCell id="-cZI7Y2OUvkLeqVM6osX-20" value="Yes" style="edgeLabel;html=1;align=center;verticalAlign=middle;resizable=0;points=[];" vertex="1" connectable="0" parent="-cZI7Y2OUvkLeqVM6osX-19">
          <mxGeometry x="-0.4312" relative="1" as="geometry">
            <mxPoint as="offset" />
          </mxGeometry>
        </mxCell>
        <mxCell id="-cZI7Y2OUvkLeqVM6osX-21" value="" style="edgeStyle=orthogonalEdgeStyle;rounded=0;orthogonalLoop=1;jettySize=auto;html=1;entryX=0;entryY=0.75;entryDx=0;entryDy=0;" edge="1" parent="1" source="-cZI7Y2OUvkLeqVM6osX-23" target="-cZI7Y2OUvkLeqVM6osX-7">
          <mxGeometry relative="1" as="geometry">
            <mxPoint x="314" y="380" as="targetPoint" />
            <Array as="points">
              <mxPoint x="274" y="364" />
            </Array>
          </mxGeometry>
        </mxCell>
        <mxCell id="-cZI7Y2OUvkLeqVM6osX-22" value="No" style="edgeLabel;html=1;align=center;verticalAlign=middle;resizable=0;points=[];" vertex="1" connectable="0" parent="-cZI7Y2OUvkLeqVM6osX-21">
          <mxGeometry x="-0.1107" y="1" relative="1" as="geometry">
            <mxPoint as="offset" />
          </mxGeometry>
        </mxCell>
        <mxCell id="-cZI7Y2OUvkLeqVM6osX-23" value="Selection&lt;div&gt;Valid&lt;/div&gt;" style="rhombus;whiteSpace=wrap;html=1;" vertex="1" parent="1">
          <mxGeometry x="224" y="310" width="80" height="80" as="geometry" />
        </mxCell>
        <mxCell id="-cZI7Y2OUvkLeqVM6osX-24" value="" style="edgeStyle=orthogonalEdgeStyle;rounded=0;orthogonalLoop=1;jettySize=auto;html=1;" edge="1" parent="1" source="-cZI7Y2OUvkLeqVM6osX-25" target="-cZI7Y2OUvkLeqVM6osX-16">
          <mxGeometry relative="1" as="geometry" />
        </mxCell>
        <mxCell id="-cZI7Y2OUvkLeqVM6osX-25" value="Display Gesture" style="rounded=0;whiteSpace=wrap;html=1;" vertex="1" parent="1">
          <mxGeometry x="344" y="500" width="120" height="60" as="geometry" />
        </mxCell>
        <mxCell id="-cZI7Y2OUvkLeqVM6osX-26" value="" style="edgeStyle=orthogonalEdgeStyle;rounded=0;orthogonalLoop=1;jettySize=auto;html=1;" edge="1" parent="1" source="-cZI7Y2OUvkLeqVM6osX-30" target="-cZI7Y2OUvkLeqVM6osX-32">
          <mxGeometry relative="1" as="geometry" />
        </mxCell>
        <mxCell id="-cZI7Y2OUvkLeqVM6osX-27" value="Yes" style="edgeLabel;html=1;align=center;verticalAlign=middle;resizable=0;points=[];" vertex="1" connectable="0" parent="-cZI7Y2OUvkLeqVM6osX-26">
          <mxGeometry x="0.1543" y="2" relative="1" as="geometry">
            <mxPoint as="offset" />
          </mxGeometry>
        </mxCell>
        <mxCell id="-cZI7Y2OUvkLeqVM6osX-28" value="" style="edgeStyle=orthogonalEdgeStyle;rounded=0;orthogonalLoop=1;jettySize=auto;html=1;entryX=1;entryY=0.5;entryDx=0;entryDy=0;" edge="1" parent="1" source="-cZI7Y2OUvkLeqVM6osX-30" target="-cZI7Y2OUvkLeqVM6osX-18">
          <mxGeometry relative="1" as="geometry">
            <mxPoint x="504" y="720" as="targetPoint" />
            <Array as="points">
              <mxPoint x="600" y="730" />
              <mxPoint x="600" y="260" />
            </Array>
          </mxGeometry>
        </mxCell>
        <mxCell id="-cZI7Y2OUvkLeqVM6osX-29" value="No" style="edgeLabel;html=1;align=center;verticalAlign=middle;resizable=0;points=[];" vertex="1" connectable="0" parent="-cZI7Y2OUvkLeqVM6osX-28">
          <mxGeometry x="0.2107" y="-1" relative="1" as="geometry">
            <mxPoint as="offset" />
          </mxGeometry>
        </mxCell>
        <mxCell id="-cZI7Y2OUvkLeqVM6osX-30" value="3 Rounds or Score of 2" style="rhombus;whiteSpace=wrap;html=1;" vertex="1" parent="1">
          <mxGeometry x="356" y="680" width="96" height="100" as="geometry" />
        </mxCell>
        <mxCell id="-cZI7Y2OUvkLeqVM6osX-31" value="" style="edgeStyle=orthogonalEdgeStyle;rounded=0;orthogonalLoop=1;jettySize=auto;html=1;" edge="1" parent="1" source="-cZI7Y2OUvkLeqVM6osX-32" target="-cZI7Y2OUvkLeqVM6osX-3">
          <mxGeometry relative="1" as="geometry" />
        </mxCell>
        <mxCell id="-cZI7Y2OUvkLeqVM6osX-32" value="&lt;font style=&quot;font-size: 11px;&quot;&gt;Show Game Winner&lt;/font&gt;" style="shape=parallelogram;perimeter=parallelogramPerimeter;whiteSpace=wrap;html=1;fixedSize=1;" vertex="1" parent="1">
          <mxGeometry x="336" y="810" width="136" height="60" as="geometry" />
        </mxCell>
      </root>
    </mxGraphModel>
  </diagram>
</mxfile>
